<svg xmlns="http://www.w3.org/2000/svg" xmlns:xlink="http://www.w3.org/1999/xlink" version="1.1" x="0px" y="0px" viewBox="0 0 96 120" style="enable-background:new 0 0 96 96;" xml:space="preserve"><path d="M76.517,59.549c-1.065,0-2.108,0.1-3.119,0.288V36.162c1.011,0.189,2.054,0.288,3.119,0.288  c9.356,0,16.968-7.612,16.968-16.968S85.874,2.514,76.517,2.514s-16.968,7.612-16.968,16.968c0,1.065,0.1,2.108,0.288,3.119H36.162  c0.189-1.011,0.288-2.054,0.288-3.119c0-9.356-7.612-16.968-16.968-16.968S2.514,10.126,2.514,19.483s7.612,16.968,16.968,16.968  c1.065,0,2.108-0.1,3.119-0.288v23.675c-1.011-0.189-2.054-0.288-3.119-0.288c-9.356,0-16.968,7.612-16.968,16.968  c0,9.356,7.612,16.968,16.968,16.968s16.968-7.612,16.968-16.968c0-1.065-0.1-2.108-0.288-3.119h23.675  c-0.189,1.011-0.288,2.054-0.288,3.119c0,9.356,7.612,16.968,16.968,16.968s16.968-7.612,16.968-16.968  C93.486,67.161,85.874,59.549,76.517,59.549z M67.24,30.121c0.812-4.446,4.68-7.717,9.275-7.718c0.001,0,0.001,0,0.002,0  c0.001,0,0.001,0,0.002,0c4.595,0.001,8.463,3.272,9.275,7.718c-2.484,2.169-5.728,3.487-9.277,3.487  C72.969,33.608,69.724,32.29,67.24,30.121z M72.45,15.493c0-2.243,1.825-4.068,4.068-4.068c2.243,0,4.068,1.825,4.068,4.068  c0,2.242-1.824,4.067-4.066,4.068c-0.001,0-0.001,0-0.002,0c-0.001,0-0.001,0-0.002,0C74.274,19.559,72.45,17.735,72.45,15.493z   M76.517,5.357c7.789,0,14.125,6.337,14.125,14.125c0,3.028-0.961,5.835-2.59,8.137c-1.176-3.237-3.659-5.803-6.79-7.11  c1.332-1.26,2.165-3.043,2.165-5.017c0-3.811-3.1-6.911-6.911-6.911s-6.911,3.1-6.911,6.911c0,1.974,0.833,3.756,2.165,5.017  c-3.131,1.307-5.614,3.873-6.791,7.11c-1.629-2.302-2.59-5.109-2.59-8.137C62.392,11.694,68.728,5.357,76.517,5.357z M70.555,35.369  v11.21h-4.632c0.146-0.529,0.221-1.078,0.221-1.633c0-3.394-2.761-6.156-6.156-6.156s-6.156,2.761-6.156,6.156  c0,0.555,0.075,1.104,0.221,1.633h-4.632v-6.95c0-0.553-0.321-1.056-0.823-1.289c-0.502-0.233-1.093-0.153-1.516,0.204  c-0.596,0.504-1.355,0.781-2.137,0.781c-1.827,0-3.313-1.486-3.313-3.313c0-1.827,1.486-3.313,3.313-3.313  c0.782,0,1.541,0.278,2.137,0.782c0.423,0.357,1.014,0.437,1.516,0.204c0.502-0.233,0.823-0.736,0.823-1.289v-6.95h11.21  C62.351,30.012,65.987,33.649,70.555,35.369z M19.483,5.357c7.789,0,14.125,6.337,14.125,14.125c0,3.028-0.961,5.835-2.59,8.137  c-1.176-3.237-3.659-5.803-6.79-7.11c1.332-1.26,2.165-3.043,2.165-5.017c0-3.811-3.1-6.911-6.911-6.911s-6.911,3.1-6.911,6.911  c0,1.974,0.833,3.756,2.165,5.017c-3.131,1.307-5.614,3.873-6.791,7.11c-1.629-2.302-2.59-5.109-2.59-8.137  C5.357,11.694,11.694,5.357,19.483,5.357z M19.483,19.56c-0.001,0-0.001,0-0.002,0c-2.242-0.001-4.066-1.825-4.066-4.068  c0-2.243,1.825-4.068,4.068-4.068s4.068,1.825,4.068,4.068c0,2.242-1.824,4.067-4.066,4.068  C19.484,19.561,19.483,19.56,19.483,19.56z M10.206,30.121c0.812-4.446,4.68-7.717,9.275-7.718c0.001,0,0.001,0,0.002,0  c0.001,0,0.001,0,0.002,0c4.595,0.001,8.463,3.272,9.275,7.718c-2.484,2.169-5.728,3.487-9.277,3.487  C15.934,33.608,12.689,32.29,10.206,30.121z M35.369,25.445h11.21v4.632c-0.529-0.146-1.078-0.221-1.633-0.221  c-3.394,0-6.156,2.761-6.156,6.156s2.761,6.156,6.156,6.156c0.555,0,1.104-0.075,1.633-0.221v4.632h-6.95  c-0.553,0-1.056,0.321-1.289,0.823c-0.233,0.502-0.153,1.093,0.204,1.516c0.504,0.596,0.782,1.355,0.782,2.137  c0,1.827-1.486,3.313-3.313,3.313c-1.827,0-3.313-1.486-3.313-3.313c0-0.782,0.277-1.541,0.782-2.137  c0.357-0.423,0.437-1.014,0.204-1.516c-0.233-0.502-0.736-0.823-1.289-0.823h-6.95v-11.21  C30.013,33.649,33.649,30.013,35.369,25.445z M10.206,87.156c0.812-4.446,4.681-7.718,9.277-7.718c4.596,0,8.465,3.272,9.277,7.718  c-2.484,2.169-5.728,3.487-9.277,3.487C15.934,90.643,12.689,89.325,10.206,87.156z M19.483,76.595  c-2.243,0-4.068-1.825-4.068-4.068c0-2.243,1.825-4.068,4.068-4.068s4.068,1.825,4.068,4.068  C23.55,74.77,21.726,76.595,19.483,76.595z M31.018,84.654c-1.176-3.237-3.659-5.803-6.79-7.11c1.332-1.26,2.165-3.043,2.165-5.017  c0-3.811-3.1-6.911-6.911-6.911s-6.911,3.1-6.911,6.911c0,1.974,0.834,3.756,2.165,5.017c-3.131,1.307-5.614,3.873-6.791,7.11  c-1.629-2.302-2.59-5.109-2.59-8.137c0-7.789,6.337-14.125,14.125-14.125s14.125,6.337,14.125,14.125  C33.608,79.546,32.647,82.352,31.018,84.654z M25.445,60.631v-11.21h4.632c-0.145,0.528-0.221,1.078-0.221,1.633  c0,3.394,2.761,6.156,6.156,6.156s6.156-2.761,6.156-6.156c0-0.555-0.075-1.104-0.221-1.633h4.632v6.95  c0,0.553,0.321,1.056,0.823,1.289c0.501,0.233,1.093,0.153,1.516-0.204c0.596-0.504,1.355-0.781,2.137-0.781  c1.827,0,3.313,1.486,3.313,3.313c0,1.827-1.486,3.313-3.313,3.313c-0.782,0-1.541-0.278-2.137-0.781  c-0.423-0.357-1.014-0.437-1.516-0.204c-0.502,0.233-0.823,0.736-0.823,1.289v6.95h-11.21  C33.649,65.987,30.013,62.351,25.445,60.631z M49.421,70.555v-4.632c0.528,0.145,1.078,0.221,1.633,0.221  c3.394,0,6.156-2.761,6.156-6.156s-2.761-6.156-6.156-6.156c-0.555,0-1.104,0.075-1.633,0.221v-4.632h6.95  c0.553,0,1.056-0.321,1.289-0.823c0.233-0.502,0.153-1.093-0.204-1.516c-0.504-0.596-0.782-1.355-0.782-2.137  c0-1.827,1.486-3.313,3.313-3.313c1.827,0,3.313,1.486,3.313,3.313c0,0.782-0.278,1.54-0.782,2.137  c-0.357,0.423-0.437,1.014-0.204,1.516c0.233,0.502,0.736,0.823,1.289,0.823h6.95v11.21c-4.568,1.72-8.204,5.356-9.924,9.924H49.421  z M67.24,87.156c0.812-4.446,4.681-7.718,9.277-7.718c4.596,0,8.465,3.272,9.277,7.718c-2.484,2.169-5.728,3.487-9.277,3.487  C72.969,90.643,69.724,89.324,67.24,87.156z M76.518,76.595c-2.243,0-4.068-1.825-4.068-4.068c0-2.243,1.825-4.068,4.068-4.068  c2.243,0,4.068,1.825,4.068,4.068C80.585,74.77,78.761,76.595,76.518,76.595z M88.053,84.654c-1.176-3.237-3.659-5.803-6.79-7.11  c1.332-1.26,2.165-3.043,2.165-5.017c0-3.811-3.1-6.911-6.911-6.911s-6.911,3.1-6.911,6.911c0,1.974,0.833,3.756,2.165,5.017  c-3.132,1.307-5.615,3.873-6.791,7.11c-1.629-2.302-2.59-5.109-2.59-8.137c0-7.789,6.337-14.125,14.125-14.125  s14.125,6.337,14.125,14.125C90.643,79.546,89.682,82.352,88.053,84.654z"/><text x="0" y="111" fill="#000000" font-size="5px" font-weight="bold" font-family="'Helvetica Neue', Helvetica, Arial-Unicode, Arial, Sans-serif">Created by Eko Purnomo</text><text x="0" y="116" fill="#000000" font-size="5px" font-weight="bold" font-family="'Helvetica Neue', Helvetica, Arial-Unicode, Arial, Sans-serif">from the Noun Project</text></svg>